<?xml version="1.0" standalone="no"?>
<svg viewBox="0 0 200 200" xmlns="http://www.w3.org/2000/svg">
  <path fill="#8A3FFC" d="M44.2,-76.9C56.9,-69.2,66.5,-56.6,73.3,-43C80.1,-29.3,84,-14.7,85.6,0.9C87.1,16.4,86.3,32.9,79.4,46.4C72.6,60,59.8,70.7,45.6,77.6C31.3,84.4,15.7,87.5,0.4,86.8C-14.9,86.1,-29.7,81.7,-43,74.2C-56.2,66.8,-67.7,56.3,-76.8,43.4C-85.9,30.5,-92.5,15.3,-93,-0.3C-93.6,-15.9,-88,-31.7,-79.5,-45.6C-71,-59.5,-59.5,-71.3,-45.8,-78.4C-32,-85.5,-16,-87.8,-0.1,-87.5C15.7,-87.3,31.5,-84.5,44.2,-76.9Z" transform="translate(100 100)" />
</svg>
